<mxfile host="app.diagrams.net" modified="2024-04-10T08:43:00.076Z" agent="Mozilla/5.0 (Windows NT 10.0; Win64; x64) AppleWebKit/537.36 (KHTML, like Gecko) Chrome/123.0.0.0 Safari/537.36" etag="gMEBVHP5KNIQSG3oWSgh" version="24.2.3" type="github">
  <diagram name="第 1 页" id="vQqjxOMvPJmB8vyCTumT">
    <mxGraphModel dx="1079" dy="551" grid="1" gridSize="10" guides="1" tooltips="1" connect="1" arrows="1" fold="1" page="1" pageScale="1" pageWidth="3300" pageHeight="4681" math="0" shadow="0">
      <root>
        <mxCell id="0" />
        <mxCell id="1" parent="0" />
        <mxCell id="q3HZcOaTXRLjKzSI3QjF-5" style="edgeStyle=orthogonalEdgeStyle;rounded=0;orthogonalLoop=1;jettySize=auto;html=1;entryX=0.5;entryY=0;entryDx=0;entryDy=0;" edge="1" parent="1" source="q3HZcOaTXRLjKzSI3QjF-1">
          <mxGeometry relative="1" as="geometry">
            <mxPoint x="390" y="430" as="targetPoint" />
          </mxGeometry>
        </mxCell>
        <mxCell id="q3HZcOaTXRLjKzSI3QjF-1" value="1" style="ellipse;whiteSpace=wrap;html=1;aspect=fixed;" vertex="1" parent="1">
          <mxGeometry x="350" y="280" width="80" height="80" as="geometry" />
        </mxCell>
        <mxCell id="q3HZcOaTXRLjKzSI3QjF-2" value="2" style="ellipse;whiteSpace=wrap;html=1;aspect=fixed;" vertex="1" parent="1">
          <mxGeometry x="510" y="280" width="80" height="80" as="geometry" />
        </mxCell>
        <mxCell id="q3HZcOaTXRLjKzSI3QjF-7" value="" style="triangle;whiteSpace=wrap;html=1;direction=south;" vertex="1" parent="1">
          <mxGeometry x="510" y="160" width="80" height="60" as="geometry" />
        </mxCell>
        <mxCell id="q3HZcOaTXRLjKzSI3QjF-12" value="" style="rhombus;whiteSpace=wrap;html=1;" vertex="1" parent="1">
          <mxGeometry x="510" y="150" width="80" height="80" as="geometry" />
        </mxCell>
        <mxCell id="q3HZcOaTXRLjKzSI3QjF-18" value="T" style="ellipse;shape=cloud;whiteSpace=wrap;html=1;" vertex="1" parent="1">
          <mxGeometry x="220" y="280" width="120" height="80" as="geometry" />
        </mxCell>
        <mxCell id="q3HZcOaTXRLjKzSI3QjF-24" style="edgeStyle=orthogonalEdgeStyle;rounded=0;orthogonalLoop=1;jettySize=auto;html=1;entryX=0.5;entryY=0;entryDx=0;entryDy=0;" edge="1" source="q3HZcOaTXRLjKzSI3QjF-25" parent="1">
          <mxGeometry relative="1" as="geometry">
            <mxPoint x="400" y="440" as="targetPoint" />
          </mxGeometry>
        </mxCell>
        <mxCell id="q3HZcOaTXRLjKzSI3QjF-25" value="1" style="ellipse;whiteSpace=wrap;html=1;aspect=fixed;" vertex="1" parent="1">
          <mxGeometry x="360" y="290" width="80" height="80" as="geometry" />
        </mxCell>
        <mxCell id="q3HZcOaTXRLjKzSI3QjF-26" style="edgeStyle=orthogonalEdgeStyle;rounded=0;orthogonalLoop=1;jettySize=auto;html=1;entryX=0.5;entryY=0;entryDx=0;entryDy=0;" edge="1" source="q3HZcOaTXRLjKzSI3QjF-27" parent="1">
          <mxGeometry relative="1" as="geometry">
            <mxPoint x="400" y="440" as="targetPoint" />
          </mxGeometry>
        </mxCell>
        <mxCell id="q3HZcOaTXRLjKzSI3QjF-27" value="1" style="ellipse;whiteSpace=wrap;html=1;aspect=fixed;" vertex="1" parent="1">
          <mxGeometry x="360" y="290" width="80" height="80" as="geometry" />
        </mxCell>
        <mxCell id="q3HZcOaTXRLjKzSI3QjF-28" value="2" style="ellipse;whiteSpace=wrap;html=1;aspect=fixed;" vertex="1" parent="1">
          <mxGeometry x="520" y="290" width="80" height="80" as="geometry" />
        </mxCell>
        <mxCell id="q3HZcOaTXRLjKzSI3QjF-29" value="" style="triangle;whiteSpace=wrap;html=1;direction=south;" vertex="1" parent="1">
          <mxGeometry x="520" y="170" width="80" height="60" as="geometry" />
        </mxCell>
        <mxCell id="q3HZcOaTXRLjKzSI3QjF-30" value="" style="rhombus;whiteSpace=wrap;html=1;" vertex="1" parent="1">
          <mxGeometry x="520" y="160" width="80" height="80" as="geometry" />
        </mxCell>
        <mxCell id="q3HZcOaTXRLjKzSI3QjF-31" style="edgeStyle=orthogonalEdgeStyle;rounded=0;orthogonalLoop=1;jettySize=auto;html=1;entryX=0.5;entryY=0;entryDx=0;entryDy=0;" edge="1" source="q3HZcOaTXRLjKzSI3QjF-32" parent="1">
          <mxGeometry relative="1" as="geometry">
            <mxPoint x="410" y="450" as="targetPoint" />
          </mxGeometry>
        </mxCell>
        <mxCell id="q3HZcOaTXRLjKzSI3QjF-32" value="1" style="ellipse;whiteSpace=wrap;html=1;aspect=fixed;" vertex="1" parent="1">
          <mxGeometry x="370" y="300" width="80" height="80" as="geometry" />
        </mxCell>
      </root>
    </mxGraphModel>
  </diagram>
</mxfile>
